<?xml version="1.0" encoding="UTF-8"?>
<!DOCTYPE svg PUBLIC "-//W3C//DTD SVG 1.1//EN" "http://www.w3.org/Graphics/SVG/1.1/DTD/svg11.dtd">
<svg version="1.1" xmlns="http://www.w3.org/2000/svg" xmlns:xlink="http://www.w3.org/1999/xlink" x="0" y="0" width="44.043" height="72.333" viewBox="0, 0, 44.043, 72.333">
  <g id="Capa_1" transform="translate(-163.088, -55.106)">
    <g>
      <path d="M194.488,64.523 C194.488,69.724 190.272,73.94 185.071,73.94 C179.871,73.94 175.655,69.724 175.655,64.523 C175.655,59.322 179.871,55.106 185.071,55.106 C190.272,55.106 194.488,59.322 194.488,64.523" fill="#383332"/>
      <path d="M192.25,124.583 C192.25,126.161 190.958,127.439 189.363,127.439 L180.708,127.439 C179.114,127.439 177.822,126.161 177.822,124.583 L177.822,79.233 C177.822,77.656 179.114,76.377 180.708,76.377 L189.363,76.377 C190.958,76.377 192.25,77.656 192.25,79.233 z" fill="#383332"/>
      <path d="M170.353,111.606 C168.703,111.606 168.028,110.437 168.853,109.008 L183.558,83.538 C184.383,82.109 185.733,82.109 186.558,83.538 L201.263,109.008 C202.088,110.437 201.413,111.606 199.763,111.606 z" fill="#383332"/>
      <path d="M181.539,76.913 C180.27,75.996 178.497,76.282 177.581,77.551 L163.625,96.868 C162.709,98.137 162.994,99.909 164.263,100.826 L165.206,101.507 C166.475,102.424 168.247,102.138 169.164,100.869 L183.12,81.552 C184.036,80.283 183.751,78.511 182.482,77.594 z" fill="#383332"/>
      <path d="M188.68,76.913 C189.949,75.996 191.722,76.282 192.638,77.551 L206.594,96.868 C207.51,98.137 207.225,99.909 205.956,100.826 L205.013,101.507 C203.744,102.424 201.972,102.138 201.055,100.869 L187.099,81.552 C186.183,80.283 186.468,78.511 187.737,77.594 z" fill="#383332"/>
    </g>
  </g>
</svg>
