<?xml version="1.0" encoding="UTF-8"?>
<!DOCTYPE svg PUBLIC "-//W3C//DTD SVG 1.1//EN" "http://www.w3.org/Graphics/SVG/1.1/DTD/svg11.dtd">
<svg version="1.1" xmlns="http://www.w3.org/2000/svg" xmlns:xlink="http://www.w3.org/1999/xlink" x="0" y="0" width="1451.551" height="475" viewBox="0, 0, 1451.551, 475">
  <g id="Layer_8">
    <g>
      <path d="M1450.803,0.607 L1450.803,475.084 L0.374,475.084 L0.374,0.607 L1450.803,0.607 z" fill="#A8A9AA"/>
      <g>
        <g>
          <path d="M297.277,46.988 C297.277,46.919 297.284,46.849 297.284,46.78 C297.284,39.78 291.607,34.106 284.608,34.106 C284.599,34.106 284.59,34.107 284.583,34.107 C284.037,21.168 273.378,10.845 260.305,10.845 C246.881,10.845 236,21.726 236,35.15 C236,35.61 236.016,36.067 236.041,36.522 C233.952,35.004 231.383,34.107 228.603,34.107 C221.603,34.107 215.929,39.782 215.929,46.781 C215.929,52.768 220.082,57.782 225.664,59.109 L313.141,59.109 C313.14,59.107 310.695,48.852 297.277,46.988 z" fill="#878787"/>
          <path d="M1063.499,0.607 C1070.162,7.061 1073.416,16.01 1073.648,25.158 C1073.648,41.646 1062.21,55.454 1046.836,59.108 L805.926,59.108 C805.928,59.107 812.657,30.863 849.613,25.73 C849.613,25.539 849.599,25.348 849.599,25.157 C849.637,15.972 853.247,7.107 859.748,0.607 L1063.499,0.607 z" fill="#878787"/>
          <path d="M702.788,46.988 C702.788,46.919 702.783,46.849 702.783,46.78 C702.783,39.78 708.459,34.106 715.459,34.106 C715.469,34.106 715.477,34.107 715.484,34.107 C716.03,21.168 726.688,10.845 739.761,10.845 C753.185,10.845 764.066,21.726 764.066,35.15 C764.066,35.61 764.05,36.067 764.025,36.522 C766.115,35.004 768.683,34.107 771.463,34.107 C778.462,34.107 784.137,39.782 784.137,46.781 C784.137,52.768 779.984,57.782 774.402,59.109 L686.925,59.109 C686.928,59.107 689.37,48.852 702.788,46.988 z" fill="#E3E3E3"/>
          <path d="M965.989,0.607 C979.948,5.998 987.421,17.694 988.164,32.403 C988.164,33.048 988.143,33.689 988.105,34.326 C991.034,32.199 994.635,30.94 998.533,30.94 C1008.345,30.94 1016.303,38.896 1016.303,48.708 C1016.303,57.102 1010.48,64.131 1002.656,65.991 L880.019,65.991 C880.019,65.991 883.444,51.612 902.257,49 C902.256,48.902 902.248,48.806 902.248,48.708 C902.248,38.896 910.203,30.94 920.018,30.94 C920.031,30.94 920.041,30.941 920.055,30.941 C921.118,16.445 928.87,6.082 942.206,0.607 L965.989,0.607 z" fill="#E3E3E3"/>
          <path d="M351.772,0.607 C365.528,5.696 373.243,16.658 374.566,31.106 C374.58,31.106 374.59,31.105 374.604,31.105 C384.369,31.105 392.289,39.024 392.289,48.791 C392.289,48.888 392.281,48.985 392.281,49.082 C411.004,51.682 414.415,65.993 414.417,65.993 L292.351,65.993 C284.562,64.142 278.767,57.145 278.767,48.791 C278.767,39.023 286.685,31.105 296.454,31.105 C300.331,31.105 303.915,32.357 306.831,34.475 C306.795,33.841 306.774,33.204 306.774,32.561 C306.974,20.111 313.579,8.793 324.524,2.739 C326.122,1.855 327.889,1.318 329.571,0.607 L351.772,0.607 z" fill="#E3E3E3"/>
        </g>
        <path d="M680.905,47.945 C691.522,47.945 694.475,52.321 695.194,53.895 C695.194,53.895 696.787,57.414 703.28,57.414 C709.089,57.414 711.093,54.609 711.451,54.013 L711.451,53.896 L711.518,53.896 C712.237,52.322 715.19,47.946 725.807,47.946 L725.879,47.948 C725.9,47.948 725.926,47.946 725.947,47.946 C736.564,47.946 739.519,52.322 740.238,53.896 C740.238,53.896 741.887,57.415 748.381,57.415 C754.875,57.415 756.563,53.896 756.563,53.896 C757.285,52.322 760.237,47.946 770.854,47.946 C781.471,47.946 784.424,52.322 785.143,53.896 C785.143,53.896 786.789,57.415 793.283,57.415 C799.777,57.415 801.47,53.896 801.47,53.896 C802.189,52.322 805.142,47.946 815.761,47.946 C826.378,47.946 829.331,52.322 830.05,53.896 C830.05,53.896 831.691,57.415 838.185,57.415 C844.678,57.415 846.373,53.896 846.373,53.896 C847.094,52.322 850.047,47.946 860.664,47.946 C871.279,47.946 874.232,52.322 874.955,53.896 C874.955,53.896 876.592,57.415 883.086,57.415 C889.578,57.415 891.275,53.896 891.275,53.896 C891.996,52.322 894.947,47.946 905.566,47.946 C916.183,47.946 919.136,52.322 919.855,53.896 C919.855,53.896 921.49,57.415 927.982,57.415 C934.476,57.415 936.179,53.896 936.179,53.896 C936.898,52.322 939.851,47.946 950.468,47.946 C961.087,47.946 964.04,52.322 964.759,53.896 C964.759,53.896 966.39,57.415 972.882,57.415 C979.376,57.415 981.081,53.896 981.081,53.896 C981.8,52.322 984.753,47.946 995.37,47.946 C1005.989,47.946 1008.94,52.322 1009.661,53.896 C1009.661,53.896 1011.29,57.415 1017.784,57.415 C1024.274,57.415 1025.983,53.896 1025.983,53.896 C1026.704,52.322 1029.655,47.946 1040.272,47.946 C1050.889,47.946 1053.842,52.322 1054.563,53.896 C1054.563,53.896 1056.188,57.415 1062.682,57.415 C1069.174,57.415 1070.885,53.896 1070.885,53.896 C1071.604,52.322 1074.557,47.946 1085.176,47.946 C1095.793,47.946 1098.746,52.322 1099.465,53.896 C1099.465,53.896 1101.088,57.415 1107.582,57.415 C1114.072,57.415 1115.789,53.896 1115.789,53.896 C1116.508,52.322 1119.461,47.946 1130.076,47.946 C1140.693,47.946 1143.646,52.322 1144.367,53.896 C1144.367,53.896 1145.986,57.415 1152.48,57.415 C1158.974,57.415 1160.691,53.896 1160.691,53.896 C1161.412,52.322 1164.363,47.946 1174.98,47.946 C1185.599,47.946 1188.552,52.322 1189.271,53.896 C1189.271,53.896 1190.886,57.415 1197.38,57.415 C1203.874,57.415 1205.593,53.896 1205.593,53.896 C1206.312,52.322 1209.265,47.946 1219.884,47.946 C1230.501,47.946 1233.454,52.322 1234.173,53.896 C1234.173,53.896 1235.787,57.415 1242.277,57.415 C1248.773,57.415 1250.498,53.896 1250.498,53.896 C1251.217,52.322 1254.17,47.946 1264.787,47.946 C1275.404,47.946 1278.357,52.322 1279.078,53.896 C1279.078,53.896 1280.688,57.415 1287.182,57.415 C1293.674,57.415 1295.401,53.896 1295.401,53.896 C1296.12,52.322 1299.073,47.946 1309.692,47.946 C1320.309,47.946 1323.262,52.322 1323.981,53.896 C1323.981,53.896 1325.591,57.415 1332.085,57.415 C1338.579,57.415 1340.308,53.896 1340.308,53.896 C1341.027,52.322 1343.98,47.946 1354.597,47.946 C1365.214,47.946 1368.167,52.322 1368.888,53.896 C1368.888,53.896 1370.492,57.415 1376.984,57.415 C1383.481,57.415 1385.213,53.896 1385.213,53.896 C1385.932,52.322 1388.885,47.946 1399.504,47.946 C1410.119,47.946 1413.072,52.322 1413.793,53.896 C1413.793,53.896 1415.394,57.415 1421.889,57.415 C1428.384,57.415 1430.118,53.896 1430.118,53.896 C1430.837,52.322 1433.79,47.946 1444.407,47.946 C1446.562,47.924 1448.71,48.142 1450.803,48.65 L1450.803,475.083 L-0,475.083 L-0,48.882 C2.379,48.117 4.879,48.009 7.355,47.945 C17.972,47.945 20.925,52.321 21.645,53.895 C21.645,53.895 23.284,57.414 29.777,57.414 C36.269,57.414 37.967,53.895 37.967,53.895 C38.687,52.321 41.64,47.945 52.258,47.945 C62.876,47.945 65.829,52.321 66.548,53.895 C66.548,53.895 68.184,57.414 74.676,57.414 C81.17,57.414 82.872,53.895 82.872,53.895 C83.591,52.321 86.544,47.945 97.162,47.945 C107.78,47.945 110.732,52.321 111.452,53.895 C111.452,53.895 113.084,57.414 119.576,57.414 C126.07,57.414 127.773,53.895 127.773,53.895 C128.494,52.321 131.447,47.945 142.063,47.945 C152.68,47.945 155.633,52.321 156.354,53.895 C156.354,53.895 157.982,57.414 164.475,57.414 C170.968,57.414 172.676,53.895 172.676,53.895 C173.396,52.321 176.348,47.945 186.966,47.945 C197.583,47.945 200.536,52.321 201.256,53.895 C201.256,53.895 202.881,57.414 209.375,57.414 C215.868,57.414 217.579,53.895 217.579,53.895 C218.298,52.321 221.251,47.945 231.869,47.945 C242.486,47.945 245.438,52.321 246.159,53.895 C246.159,53.895 247.781,57.414 254.274,57.414 C260.766,57.414 262.481,53.895 262.481,53.895 C263.201,52.321 266.154,47.945 276.771,47.945 C287.387,47.945 290.34,52.321 291.061,53.895 C291.061,53.895 292.68,57.414 299.173,57.414 C305.667,57.414 307.384,53.895 307.384,53.895 C308.103,52.321 311.056,47.945 321.674,47.945 C332.292,47.945 335.245,52.321 335.964,53.895 C335.964,53.895 337.579,57.414 344.072,57.414 C350.565,57.414 352.287,53.895 352.287,53.895 C353.006,52.321 355.959,47.945 366.577,47.945 C377.194,47.945 380.146,52.321 380.867,53.895 C380.867,53.895 382.479,57.414 388.971,57.414 C395.466,57.414 397.189,53.895 397.189,53.895 C397.91,52.321 400.862,47.945 411.479,47.945 C422.097,47.945 425.05,52.321 425.769,53.895 C425.769,53.895 427.379,57.414 433.873,57.414 C440.366,57.414 442.093,53.895 442.093,53.895 C442.812,52.321 445.765,47.945 456.383,47.945 C467.001,47.945 469.954,52.321 470.673,53.895 C470.673,53.895 472.282,57.414 478.775,57.414 C485.27,57.414 486.999,53.895 486.999,53.895 C487.718,52.321 490.671,47.945 501.289,47.945 C511.905,47.945 514.858,52.321 515.579,53.895 C515.579,53.895 517.183,57.414 523.676,57.414 C530.173,57.414 531.904,53.895 531.904,53.895 C532.624,52.321 535.577,47.945 546.193,47.945 C556.81,47.945 559.763,52.321 560.483,53.895 C560.483,53.895 562.085,57.414 568.58,57.414 C575.075,57.414 576.809,53.895 576.809,53.895 C577.528,52.321 580.481,47.945 591.099,47.945 C601.717,47.945 604.67,52.321 605.389,53.895 C605.389,53.895 606.988,57.414 613.481,57.414 C619.974,57.414 621.713,53.895 621.713,53.895 C622.432,52.321 625.385,47.945 636.003,47.945 C646.621,47.945 649.572,52.321 650.293,53.895 C650.293,53.895 651.888,57.414 658.38,57.414 C664.873,57.414 666.614,53.895 666.614,53.895 C667.335,52.321 670.287,47.945 680.905,47.945 z" fill="#47CAAA"/>
        <path d="M677.154,68.454 C687.771,68.454 690.724,72.83 691.443,74.404 C691.443,74.404 693.036,77.923 699.529,77.923 C705.338,77.923 707.342,75.118 707.699,74.522 L707.699,74.405 L707.768,74.405 C708.487,72.831 711.44,68.455 722.057,68.455 C722.082,68.455 722.104,68.457 722.129,68.457 C722.15,68.457 722.176,68.455 722.197,68.455 C732.814,68.455 735.769,72.831 736.488,74.405 C736.488,74.405 738.137,77.924 744.631,77.924 C751.125,77.924 752.813,74.405 752.813,74.405 C753.535,72.831 756.487,68.455 767.104,68.455 C777.721,68.455 780.674,72.831 781.393,74.405 C781.393,74.405 783.039,77.924 789.532,77.924 C796.027,77.924 797.72,74.405 797.72,74.405 C798.439,72.831 801.392,68.455 812.011,68.455 C822.628,68.455 825.581,72.831 826.3,74.405 C826.3,74.405 827.941,77.924 834.435,77.924 C840.928,77.924 842.623,74.405 842.623,74.405 C843.344,72.831 846.297,68.455 856.914,68.455 C867.529,68.455 870.482,72.831 871.205,74.405 C871.205,74.405 872.842,77.924 879.336,77.924 C885.826,77.924 887.525,74.405 887.525,74.405 C888.244,72.831 891.197,68.455 901.816,68.455 C912.433,68.455 915.386,72.831 916.105,74.405 C916.105,74.405 917.74,77.924 924.232,77.924 C930.726,77.924 932.429,74.405 932.429,74.405 C933.148,72.831 936.101,68.455 946.718,68.455 C957.337,68.455 960.29,72.831 961.009,74.405 C961.009,74.405 962.64,77.924 969.132,77.924 C975.626,77.924 977.331,74.405 977.331,74.405 C978.05,72.831 981.003,68.455 991.62,68.455 C1002.237,68.455 1005.19,72.831 1005.911,74.405 C1005.911,74.405 1007.54,77.924 1014.034,77.924 C1020.524,77.924 1022.233,74.405 1022.233,74.405 C1022.954,72.831 1025.905,68.455 1036.522,68.455 C1047.139,68.455 1050.092,72.831 1050.813,74.405 C1050.813,74.405 1052.438,77.924 1058.932,77.924 C1065.424,77.924 1067.135,74.405 1067.135,74.405 C1067.854,72.831 1070.807,68.455 1081.426,68.455 C1092.043,68.455 1094.996,72.831 1095.715,74.405 C1095.715,74.405 1097.338,77.924 1103.832,77.924 C1110.322,77.924 1112.039,74.405 1112.039,74.405 C1112.758,72.831 1115.711,68.455 1126.326,68.455 C1136.943,68.455 1139.896,72.831 1140.617,74.405 C1140.617,74.405 1142.236,77.924 1148.73,77.924 C1155.224,77.924 1156.941,74.405 1156.941,74.405 C1157.662,72.831 1160.613,68.455 1171.23,68.455 C1181.849,68.455 1184.802,72.831 1185.521,74.405 C1185.521,74.405 1187.136,77.924 1193.63,77.924 C1200.124,77.924 1201.843,74.405 1201.843,74.405 C1202.562,72.831 1205.515,68.455 1216.134,68.455 C1226.751,68.455 1229.704,72.831 1230.423,74.405 C1230.423,74.405 1232.037,77.924 1238.527,77.924 C1245.023,77.924 1246.748,74.405 1246.748,74.405 C1247.467,72.831 1250.42,68.455 1261.037,68.455 C1271.654,68.455 1274.607,72.831 1275.328,74.405 C1275.328,74.405 1276.938,77.924 1283.432,77.924 C1289.924,77.924 1291.651,74.405 1291.651,74.405 C1292.37,72.831 1295.323,68.455 1305.942,68.455 C1316.559,68.455 1319.512,72.831 1320.231,74.405 C1320.231,74.405 1321.841,77.924 1328.335,77.924 C1334.829,77.924 1336.558,74.405 1336.558,74.405 C1337.277,72.831 1340.23,68.455 1350.847,68.455 C1361.464,68.455 1364.417,72.831 1365.138,74.405 C1365.138,74.405 1366.742,77.924 1373.234,77.924 C1379.731,77.924 1381.463,74.405 1381.463,74.405 C1382.182,72.831 1385.135,68.455 1395.754,68.455 C1406.369,68.455 1409.322,72.831 1410.043,74.405 C1410.043,74.405 1411.644,77.924 1418.139,77.924 C1424.634,77.924 1426.368,74.405 1426.368,74.405 C1427.087,72.831 1430.04,68.455 1440.657,68.455 C1443.965,68.584 1447.864,68.71 1450.803,70.459 L1450.803,477.583 L-0,477.583 L-0,68.692 C2.335,68.434 1.133,68.518 3.607,68.454 C14.224,68.454 17.177,72.83 17.898,74.404 C17.898,74.404 19.537,77.923 26.028,77.923 C32.521,77.923 34.22,74.404 34.22,74.404 C34.939,72.83 37.892,68.454 48.51,68.454 C59.127,68.454 62.081,72.83 62.8,74.404 C62.8,74.404 64.435,77.923 70.927,77.923 C77.421,77.923 79.124,74.404 79.124,74.404 C79.843,72.83 82.796,68.454 93.413,68.454 C104.03,68.454 106.983,72.83 107.704,74.404 C107.704,74.404 109.335,77.923 115.827,77.923 C122.319,77.923 124.024,74.404 124.024,74.404 C124.745,72.83 127.696,68.454 138.313,68.454 C148.932,68.454 151.885,72.83 152.604,74.404 C152.604,74.404 154.233,77.923 160.727,77.923 C167.219,77.923 168.928,74.404 168.928,74.404 C169.647,72.83 172.6,68.454 183.217,68.454 C193.834,68.454 196.787,72.83 197.508,74.404 C197.508,74.404 199.133,77.923 205.627,77.923 C212.119,77.923 213.83,74.404 213.83,74.404 C214.549,72.83 217.502,68.454 228.121,68.454 C238.736,68.454 241.689,72.83 242.41,74.404 C242.41,74.404 244.033,77.923 250.525,77.923 C257.017,77.923 258.732,74.404 258.732,74.404 C259.453,72.83 262.406,68.454 273.021,68.454 C283.638,68.454 286.591,72.83 287.312,74.404 C287.312,74.404 288.931,77.923 295.425,77.923 C301.919,77.923 303.636,74.404 303.636,74.404 C304.355,72.83 307.308,68.454 317.925,68.454 C328.544,68.454 331.496,72.83 332.216,74.404 C332.216,74.404 333.83,77.923 340.323,77.923 C346.817,77.923 348.537,74.404 348.537,74.404 C349.257,72.83 352.21,68.454 362.827,68.454 C373.444,68.454 376.397,72.83 377.116,74.404 C377.116,74.404 378.729,77.923 385.221,77.923 C391.717,77.923 393.44,74.404 393.44,74.404 C394.159,72.83 397.112,68.454 407.729,68.454 C418.348,68.454 421.301,72.83 422.02,74.404 C422.02,74.404 423.63,77.923 430.124,77.923 C436.614,77.923 438.343,74.404 438.343,74.404 C439.062,72.83 442.015,68.454 452.634,68.454 C463.251,68.454 466.203,72.83 466.923,74.404 C466.923,74.404 468.529,77.923 475.025,77.923 C481.521,77.923 483.25,74.404 483.25,74.404 C483.969,72.83 486.922,68.454 497.537,68.454 C508.154,68.454 511.107,72.83 511.828,74.404 C511.828,74.404 513.434,77.923 519.926,77.923 C526.423,77.923 528.153,74.404 528.153,74.404 C528.874,72.83 531.825,68.454 542.444,68.454 C553.061,68.454 556.014,72.83 556.733,74.404 C556.733,74.404 558.337,77.923 564.83,77.923 C571.323,77.923 573.059,74.404 573.059,74.404 C573.778,72.83 576.731,68.454 587.348,68.454 C597.967,68.454 600.92,72.83 601.639,74.404 C601.639,74.404 603.237,77.923 609.731,77.923 C616.223,77.923 617.963,74.404 617.963,74.404 C618.682,72.83 621.635,68.454 632.252,68.454 C642.87,68.454 645.822,72.83 646.543,74.404 C646.543,74.404 648.137,77.923 654.629,77.923 C661.122,77.923 662.863,74.404 662.863,74.404 C663.584,72.83 666.536,68.454 677.154,68.454 z" fill="#4CA4A4"/>
        <g>
          <g>
            <text transform="matrix(1, 0, 0, 1, 958.629, 294.522)">
              <tspan x="-96.57" y="35" font-family="Helvetica-Bold" font-size="96" fill="#FFFFFF">60%</tspan>
            </text>
            <text transform="matrix(1, 0, 0, 1, 1164.669, 283.818)">
              <tspan x="-88.61" y="10.5" font-family="Helvetica" font-size="30" fill="#C4EAF4">of the world’s </tspan>
            </text>
            <text transform="matrix(1, 0, 0, 1, 1145.787, 319.818)">
              <tspan x="-69.729" y="10.5" font-family="Helvetica" font-size="30" fill="#C4EAF4">population</tspan>
            </text>
            <text transform="matrix(1, 0, 0, 1, 1062.161, 366.599)">
              <tspan x="-200.103" y="7" font-family="Helvetica" font-size="21" fill="#FFFFFF">mostly from developing countries, does not </tspan>
            </text>
            <text transform="matrix(1, 0, 0, 1, 1058.111, 396.599)">
              <tspan x="-196.052" y="7" font-family="Helvetica" font-size="21" fill="#FFFFFF">enjoy the potential benefits of the Internet.</tspan>
            </text>
          </g>
          <text transform="matrix(1, 0, 0, 1, 975.459, 171.619)">
            <tspan x="-110.9" y="29.5" font-family="HelveticaNeue-Light" font-size="80" fill="#F6C046">ISOLA</tspan>
          </text>
          <text transform="matrix(1, 0, 0, 1, 1100.656, 171.619)">
            <tspan x="-15.3" y="29.5" font-family="HelveticaNeue-Light" font-size="80" fill="#F6C046">-</tspan>
          </text>
          <path d="M862.06,224.596 L1263.06,224.596" fill-opacity="0" stroke="#F6C046" stroke-width="2" stroke-miterlimit="10"/>
          <path d="M862.06,237.596 L1263.06,237.596" fill-opacity="0" stroke="#F6C046" stroke-width="2" stroke-miterlimit="10"/>
        </g>
        <path d="M670.504,277.431 C670.504,304.532 628.588,326.501 576.883,326.501 C525.177,326.501 483.262,304.532 483.262,277.431 C483.262,250.33 525.177,228.361 576.883,228.361 C628.588,228.361 670.504,250.33 670.504,277.431 z" fill="#336699"/>
        <path d="M758.033,288.081 C758.033,307.694 727.699,323.593 690.281,323.593 C652.863,323.593 622.529,307.694 622.529,288.081 C622.529,268.468 652.863,252.569 690.281,252.569 C727.699,252.569 758.033,268.468 758.033,288.081 z" fill="#336699"/>
        <path d="M719.663,253.925 C719.663,273.538 689.33,289.437 651.912,289.437 C614.494,289.437 584.161,273.538 584.161,253.925 C584.161,234.312 614.494,218.413 651.912,218.413 C689.33,218.413 719.663,234.312 719.663,253.925 z" fill="#2288A0"/>
        <path d="M806.918,409.676 C806.918,430.393 775.548,447.188 736.852,447.188 C698.156,447.188 666.786,430.393 666.786,409.676 C666.786,388.959 698.156,372.164 736.852,372.164 C775.548,372.164 806.918,388.959 806.918,409.676 z" fill="#336699"/>
        <path d="M386.863,397.979 C386.863,426.607 343.517,449.815 290.046,449.815 C236.575,449.815 193.229,426.607 193.229,397.979 C193.229,369.351 236.575,346.143 290.046,346.143 C343.517,346.143 386.863,369.351 386.863,397.979 z" fill="#336699"/>
        <path d="M421.959,375.926 C421.959,396.643 390.589,413.438 351.893,413.438 C313.197,413.438 281.827,396.643 281.827,375.926 C281.827,355.209 313.197,338.414 351.893,338.414 C390.589,338.414 421.959,355.209 421.959,375.926 z" fill="#336699"/>
        <path d="M380.807,388.068 C380.807,413.855 340.924,434.759 291.725,434.759 C242.526,434.759 202.643,413.855 202.643,388.068 C202.643,362.281 242.526,341.377 291.725,341.377 C340.924,341.377 380.807,362.281 380.807,388.068 z" fill="#99CC33"/>
        <path d="M413.097,368.205 C413.097,386.866 384.234,401.994 348.63,401.994 C313.026,401.994 284.163,386.866 284.163,368.205 C284.163,349.544 313.026,334.416 348.63,334.416 C384.234,334.416 413.097,349.544 413.097,368.205 z" fill="#99CC33"/>
        <path d="M297.104,357.049 L336.444,282.728 L375.782,357.049 z" fill="#A8A9AA"/>
        <path d="M241.377,386.479 L293.478,288.054 L345.576,386.479 z" fill="#D2D3D5"/>
        <g>
          <g>
            <path d="M293.067,288.83 L293.067,332.355 L293.046,332.355 C292.824,338.378 287.882,343.194 281.804,343.194 C275.726,343.194 270.788,338.376 270.561,332.355 L270.54,332.355 L270.54,331.387 L293.067,288.83 z" fill="#FFFFFF"/>
            <path d="M293.478,288.054 L312.222,323.464 C310.214,326.246 306.806,327.471 303.512,327.634 C297.434,327.634 292.496,322.816 292.269,316.794 L292.248,316.794 L292.248,290.378 L293.478,288.054 z" fill="#FFFFFF"/>
          </g>
          <path d="M353.371,390.271 L295.623,390.271 C295.623,374.326 308.551,361.398 324.496,361.398 C340.445,361.398 353.371,374.326 353.371,390.271 z" fill="#97B232"/>
          <path d="M377.12,390.271 L341.091,390.271 C341.091,380.322 349.155,372.255 359.107,372.255 C369.056,372.258 377.12,380.322 377.12,390.271 z" fill="#97B232"/>
          <path d="M761.704,275.47 C761.704,295.083 731.37,310.982 693.952,310.982 C656.534,310.982 626.2,295.083 626.2,275.47 C626.2,255.857 656.534,239.958 693.952,239.958 C731.37,239.958 761.704,255.857 761.704,275.47 z" fill="#F6BF35"/>
          <path d="M801.319,399.012 C801.319,417.673 772.456,432.801 736.852,432.801 C701.248,432.801 672.385,417.673 672.385,399.012 C672.385,380.351 701.248,365.223 736.852,365.223 C772.456,365.223 801.319,380.351 801.319,399.012 z" fill="#99CC33"/>
          <path d="M422.862,184.924 C422.862,200.025 399.996,212.267 371.789,212.267 C343.582,212.267 320.716,200.025 320.716,184.924 C320.716,169.823 343.582,157.581 371.789,157.581 C399.996,157.581 422.862,169.823 422.862,184.924 z" fill="#336699"/>
          <path d="M297.517,231.809 C297.517,242.72 280.995,251.566 260.614,251.566 C240.233,251.566 223.711,242.72 223.711,231.809 C223.711,220.898 240.233,212.052 260.614,212.052 C280.995,212.052 297.517,220.898 297.517,231.809 z" fill="#336699"/>
          <path d="M294.566,222.395 C294.566,232.223 279.365,240.191 260.613,240.191 C241.861,240.191 226.66,232.223 226.66,222.395 C226.66,212.567 241.861,204.599 260.613,204.599 C279.365,204.599 294.566,212.567 294.566,222.395 z" fill="#99CC33"/>
          <path d="M459.681,187.686 C459.681,198.597 443.159,207.443 422.778,207.443 C402.397,207.443 385.875,198.597 385.875,187.686 C385.875,176.775 402.397,167.929 422.778,167.929 C443.159,167.929 459.681,176.775 459.681,187.686 z" fill="#336699"/>
          <path d="M418.779,176.431 C418.779,190.034 397.74,201.061 371.788,201.061 C345.836,201.061 324.797,190.034 324.797,176.431 C324.797,162.828 345.836,151.801 371.788,151.801 C397.74,151.801 418.779,162.828 418.779,176.431 z" fill="#99CC33"/>
          <path d="M456.73,179.271 C456.73,189.099 441.529,197.067 422.777,197.067 C404.025,197.067 388.824,189.099 388.824,179.271 C388.824,169.443 404.025,161.475 422.777,161.475 C441.529,161.475 456.73,169.443 456.73,179.271 z" fill="#99CC33"/>
          <path d="M674.175,264.82 C674.175,291.921 632.26,313.89 580.555,313.89 C528.85,313.89 486.935,291.921 486.935,264.82 C486.935,237.719 528.85,215.75 580.555,215.75 C632.26,215.75 674.175,237.719 674.175,264.82 z" fill="#99CC33"/>
          <path d="M723.337,241.315 C723.337,260.928 693.004,276.827 655.586,276.827 C618.168,276.827 587.835,260.928 587.835,241.315 C587.835,221.702 618.168,205.803 655.586,205.803 C693.004,205.803 723.337,221.702 723.337,241.315 z" fill="#99CC33"/>
          <path d="M742.212,268.19 C742.212,287.803 711.879,303.702 674.461,303.702 C637.043,303.702 606.71,287.803 606.71,268.19 C606.71,248.577 637.043,232.678 674.461,232.678 C711.879,232.678 742.212,248.577 742.212,268.19 z" fill="#99CC33"/>
          <path d="M537.437,237.312 L576.777,162.992 L616.115,237.312 z" fill="#A8A9AA"/>
          <path d="M577.71,237.312 L629.811,138.887 L681.909,237.312 z" fill="#D2D3D5"/>
          <g>
            <g>
              <path d="M629.399,139.665 L629.399,183.188 L629.378,183.188 C629.154,189.211 624.214,194.028 618.136,194.028 C612.058,194.028 607.118,189.211 606.893,183.188 L606.871,183.188 L606.871,182.223 L629.399,139.665 z" fill="#FFFFFF"/>
              <path d="M629.811,138.887 L648.554,174.296 C646.546,177.079 643.139,178.304 639.844,178.467 C633.766,178.467 628.826,173.649 628.601,167.627 L628.579,167.627 L628.579,141.214 L629.811,138.887 z" fill="#FFFFFF"/>
            </g>
            <path d="M633.692,246.116 L673.031,171.796 L712.37,246.116 z" fill="#A8A9AA"/>
            <path d="M570.704,237.312 L512.954,237.312 C512.954,221.366 525.884,208.438 541.829,208.438 C557.778,208.438 570.704,221.366 570.704,237.312 z" fill="#97B232"/>
            <path d="M606.883,262.307 L632.031,214.796 L657.181,262.307 z" fill="#BD936C"/>
            <path d="M636.704,273.105 L578.954,273.105 C578.954,257.159 591.884,244.231 607.829,244.231 C623.778,244.231 636.704,257.159 636.704,273.105 z" fill="#97B232"/>
            <path d="M660.453,273.105 L624.424,273.105 C624.424,263.156 632.488,255.09 642.44,255.09 C652.389,255.09 660.453,263.156 660.453,273.105 z" fill="#97B232"/>
            <path d="M691.384,262.307 L716.531,214.796 L741.682,262.307 z" fill="#BD936C"/>
            <path d="M745.287,369.578 L705.031,369.578 C705.031,358.463 714.045,349.451 725.16,349.451 C736.277,349.451 745.287,358.463 745.287,369.578 z" fill="#97B232"/>
            <path d="M730.346,387.607 L760.66,330.336 L790.977,387.607 z" fill="#BD936C"/>
            <path d="M800.666,393.773 L748.408,393.773 C748.408,379.341 760.107,367.646 774.537,367.646 C788.969,367.646 800.666,379.344 800.666,393.773 z" fill="#97B232"/>
            <path d="M227.433,218.19 L248.198,178.962 L268.962,218.19 z" fill="#D2D3D5"/>
            <path d="M286.167,218.19 L252.123,218.19 C252.123,208.79 259.744,201.169 269.144,201.169 C278.546,201.169 286.167,208.79 286.167,218.19 z" fill="#97B232"/>
            <path d="M369.293,168.438 L389.365,130.517 L409.438,168.438 z" fill="#A8A9AA"/>
            <path d="M383.103,168.438 L414.698,108.748 L446.295,168.438 z" fill="#D2D3D5"/>
            <path d="M449.371,168.438 L400.621,168.438 C400.621,154.977 411.534,144.064 424.996,144.064 C438.46,144.064 449.371,154.977 449.371,168.438 z" fill="#97B232"/>
            <path d="M706.902,128.244 C706.902,136.716 694.074,143.584 678.25,143.584 C662.426,143.584 649.598,136.716 649.598,128.244 C649.598,119.772 662.426,112.904 678.25,112.904 C694.074,112.904 706.902,119.772 706.902,128.244 z" fill="#2288A0"/>
            <path d="M704.612,121.487 C704.612,129.118 692.809,135.305 678.25,135.305 C663.691,135.305 651.888,129.118 651.888,121.487 C651.888,113.856 663.691,107.669 678.25,107.669 C692.809,107.669 704.612,113.856 704.612,121.487 z" fill="#99CC33"/>
            <g>
              <path d="M362.366,89.952 C360.166,86.258 354.979,83.678 350.025,87.598 C345.662,91.052 344.1,96.606 346.504,102.612 C349.566,110.272 356.002,109.965 356.002,109.965 C356.002,109.965 351.302,103.611 357.84,101.233 C362.896,99.395 364.569,93.647 362.366,89.952 z" fill="#993333"/>
              <path d="M362.349,82.469 C365.761,76.281 379.617,71.907 385.964,75.013 C390.991,77.474 393.509,86.465 393.509,86.465 L395.068,93.113 C395.068,93.113 397.756,97.011 396.41,101.052 C393.792,108.921 377.986,113.678 371.323,108.74 C367.903,106.203 365.502,102.621 364.851,100.566 C364.199,98.512 358.104,90.163 362.349,82.469 z" fill="#FA9351"/>
              <path d="M368.112,99.623 C368.112,99.623 365.628,97.758 363.728,99.442 C361.831,101.125 363.559,103.712 365.285,104.854 C367.014,105.995 370.381,106.8 370.381,106.8 L368.112,99.623 z" fill="#FA9351"/>
              <path d="M390.737,92.379 C391.094,93.508 390.729,94.631 389.922,94.886 C389.116,95.14 388.172,94.431 387.815,93.301 C387.459,92.172 387.824,91.049 388.63,90.795 C389.437,90.54 390.381,91.249 390.737,92.379 z" fill="#494011"/>
              <path d="M377.74,96.42 C378.097,97.549 377.732,98.672 376.925,98.926 C376.118,99.181 375.175,98.472 374.819,97.342 C374.462,96.212 374.827,95.09 375.634,94.835 C376.441,94.581 377.384,95.29 377.74,96.42 z" fill="#494011"/>
              <path d="M390.748,102.761 C391.183,104.138 389.303,105.959 386.55,106.828 C383.797,107.697 381.212,107.286 380.778,105.91 C380.343,104.533 382.223,102.712 384.976,101.843 C387.729,100.973 390.314,101.385 390.748,102.761 z" fill="#993333"/>
              <path d="M383.061,98.862 C383.299,99.618 384.107,100.038 384.863,99.799 C385.619,99.561 386.039,98.753 385.801,97.997 C385.801,97.997 385.398,98.666 384.642,98.905 C383.884,99.145 383.061,98.862 383.061,98.862 z" fill="#E27437"/>
              <path d="M374.074,92.176 C374.074,92.176 373.66,92.487 373.299,93.053 C372.748,93.907 372.91,94.5 372.827,94.617 C372.827,94.617 372.337,93.759 372.967,92.857 C373.504,92.085 374.074,92.176 374.074,92.176 z" fill="#494011"/>
              <path d="M388.326,87.516 C388.326,87.516 388.845,87.545 389.461,87.816 C390.392,88.223 390.586,88.806 390.72,88.857 C390.72,88.857 390.654,87.87 389.63,87.468 C388.752,87.124 388.326,87.516 388.326,87.516 z" fill="#494011"/>
              <g>
                <g>
                  <path d="M387.343,103.584 C389.16,103.767 388.154,103.55 390.305,104.455 C389.339,105.683 387.97,106.3 386.55,106.828 C385.424,107.122 384.954,107.302 383.628,107.282 C383.126,107.275 382.635,107.124 382.139,107.045 C382.917,104.755 385.112,103.809 387.343,103.584 z" fill="#DB2335"/>
                  <path d="M388.02,80.091 C388.02,80.091 388.326,86.832 384.497,88.517 C380.667,90.202 372.536,90.868 369.789,94.645 C367.34,98.015 369.179,101.998 369.179,101.998 C369.179,101.998 367.492,99.394 365.656,99.087 C363.817,98.78 363.052,100.006 363.052,100.006 C363.052,100.006 358.426,91.882 361.824,83.307 C365.348,74.422 378.983,72.583 383.886,73.963 C389.359,75.502 392.619,78.456 393.386,82.082 C393.996,84.993 393.845,88.517 393.845,88.517 C393.845,88.517 389.553,86.219 388.02,80.091 z" fill="#993333"/>
                  <path d="M363.814,87.139 C363.814,88.662 362.58,89.896 361.057,89.896 C359.534,89.896 358.3,88.662 358.3,87.139 C358.3,85.616 359.534,84.382 361.057,84.382 C362.58,84.382 363.814,85.616 363.814,87.139 z" fill="#47CAAA"/>
                  <path d="M363.814,92.501 C363.814,94.024 362.58,95.258 361.057,95.258 C359.534,95.258 358.3,94.024 358.3,92.501 C358.3,90.978 359.534,89.744 361.057,89.744 C362.58,89.744 363.814,90.978 363.814,92.501 z" fill="#47CAAA"/>
                </g>
                <g>
                  <path d="M398.532,277.617 L406.002,301.516 C406.002,301.516 398.072,307.031 390.835,306.801 C385.052,306.617 384.057,301.745 384.057,301.745 C384.057,301.745 379.411,277.031 385.091,270.723 C391.985,263.062 397.084,277.8 398.532,277.617 z" fill="#F6BF35"/>
                  <path d="M366.618,277.083 C370.031,270.894 383.889,266.52 390.234,269.627 C393.095,271.028 393.81,271.142 395.047,273.787 C397.225,278.438 398.575,285.88 398.576,285.88 C399.224,287.935 402.022,291.626 400.679,295.666 C398.06,303.536 379.682,309.338 373.019,304.399 C369.598,301.862 369.769,297.234 369.12,295.18 C368.473,293.126 362.376,284.776 366.618,277.083 z" fill="#FA9351"/>
                  <path d="M372.383,294.237 C372.383,294.237 369.897,292.371 367.997,294.055 C366.101,295.739 367.827,298.326 369.556,299.467 C371.283,300.609 374.649,301.413 374.649,301.413 L372.383,294.237 z" fill="#FA9351"/>
                  <path d="M394.485,286.725 C394.843,287.854 394.478,288.977 393.671,289.232 C392.865,289.487 391.921,288.778 391.564,287.649 C391.207,286.519 391.571,285.397 392.378,285.141 C393.185,284.886 394.128,285.595 394.485,286.725 z" fill="#494011"/>
                  <path d="M383.208,290.169 C383.564,291.298 383.199,292.42 382.392,292.674 C381.585,292.929 380.642,292.22 380.286,291.091 C379.93,289.961 380.295,288.84 381.102,288.585 C381.909,288.33 382.852,289.04 383.208,290.169 z" fill="#494011"/>
                  <path d="M395.046,296.001 C395.481,297.377 393.601,299.197 390.848,300.066 C388.095,300.935 385.512,300.524 385.077,299.148 C384.643,297.772 386.522,295.952 389.275,295.083 C392.028,294.214 394.612,294.624 395.046,296.001 z" fill="#993333"/>
                  <path d="M387.638,292.434 C387.877,293.19 388.684,293.61 389.44,293.371 C390.196,293.132 390.616,292.326 390.378,291.569 C390.378,291.569 389.976,292.239 389.219,292.478 C388.463,292.715 387.638,292.434 387.638,292.434 z" fill="#E27437"/>
                  <path d="M379.574,285.889 C379.574,285.889 379.16,286.2 378.799,286.767 C378.248,287.621 378.41,288.214 378.327,288.331 C378.327,288.331 377.837,287.473 378.467,286.571 C379.005,285.798 379.574,285.889 379.574,285.889 z" fill="#494011"/>
                  <g id="Layer_2">
                    <g>
                      <path d="M391.615,296.819 C393.439,297.003 392.426,296.785 394.597,297.699 C393.633,298.924 392.265,299.539 390.848,300.066 C389.726,300.359 389.247,300.541 387.927,300.521 C387.415,300.513 386.916,300.36 386.411,300.28 C387.189,297.99 389.384,297.044 391.615,296.819 z" fill="#DB2335"/>
                      <path d="M373.828,288.647 C373.828,288.647 378.315,284.916 386.697,282.212 C391.447,280.68 395.889,280.259 395.889,280.259 C395.889,280.259 395.774,278.076 394.97,276.122 C394.395,274.727 393.055,272.56 393.055,272.56 C393.055,272.56 394.571,273.143 395.659,275.471 C397.037,278.421 397.19,280.22 397.19,280.22 L400.254,279.913 C400.254,279.913 397.955,263.368 380.49,266.585 C365.689,269.311 362.183,280.296 363.717,293.931 L361.649,308.868 C361.649,308.868 363.347,312.283 369.692,312.085 C377.046,311.856 380.262,308.409 380.262,308.409 L373.828,288.647 z" fill="#F6BF35"/>
                    </g>
                    <path d="M735.948,388.32 C723.889,392.947 709.212,401.006 709.212,401.006 C709.212,401.006 709.586,397.615 706.026,396.158 C703.656,395.183 700.596,396.986 700.992,399.592 L703.2,409.701 C706.462,409.205 711.43,407.43 725.833,403.92 C730.597,402.762 736.667,401.229 738.113,401.283 L735.948,388.32 z" fill="#FA9351"/>
                    <path d="M742.71,392.838 C731.695,399.59 721.004,411.137 721.004,411.137 C721.004,411.137 720.753,407.737 716.988,406.951 C714.478,406.428 711.8,408.758 712.666,411.248 L716.684,420.785 C719.798,419.701 724.36,417.047 737.881,410.967 C742.35,408.959 743.941,400.85 745.371,400.643 L742.71,392.838 z" fill="#FA9351"/>
                    <path d="M748.573,395.926 C748.024,387.141 745.317,381.342 745.317,381.342 L743.942,365.842 L737.823,364.074 L737.165,360.394 L725.666,360.451 L726.323,366.129 L720.512,368.846 L722.317,382.842 C722.317,382.842 723.745,393.592 725.567,402.842 C725.568,402.842 749.073,403.926 748.573,395.926 z" fill="#FA9351"/>
                    <path d="M717.573,397.176 L723.573,405.551 L726.823,404.926 L725.323,406.676 L733.073,413.676 C733.073,413.676 747.323,408.301 749.573,401.801 C752.191,394.239 746.823,385.926 746.823,385.926 L722.913,393.592 L717.573,397.176 z" fill="#336699"/>
                    <path d="M377.712,345.141 C366.398,351.37 349.769,358.385 349.769,358.385 C349.769,358.385 352.601,360.287 351.42,363.947 C350.634,366.385 347.281,367.56 345.547,365.578 L339.245,357.367 C341.727,355.197 347.293,351.547 359.266,342.805 C363.224,339.914 368.314,336.265 369.203,335.123 L377.712,345.141 z" fill="#FA9351"/>
                    <path d="M363.762,338.416 C366.988,330.228 369.262,322.416 369.262,322.416 L370.637,306.916 L376.757,305.147 L377.412,301.469 L388.912,301.524 L388.257,307.202 L394.067,309.919 L392.263,323.916 C392.263,323.916 390.835,334.666 389.013,343.916 C386.517,356.59 384.393,372.904 384.393,372.904 C384.393,372.904 387.721,372.154 389.567,375.525 C390.8,377.773 389.352,381.013 386.716,380.912 L376.423,379.848 C376.551,376.553 376.108,344.645 375.889,343.215 C375.187,344.48 360.512,346.666 363.762,338.416 z" fill="#FA9351"/>
                    <path d="M368.331,325.5 L357.391,343.324 C357.391,343.324 361.09,350.638 370.067,355.193 C380.178,360.322 386.708,358.736 386.708,358.736 L391.167,332.666 L368.331,325.5 z" fill="#336699"/>
                    <path d="M540.228,225.102 C540.228,225.102 536.465,221.909 529.164,227.967 C525.351,231.133 515.819,242.189 515.819,242.189 C515.819,242.189 511.29,242.314 509.097,245.893 C507.312,248.804 510.077,251.754 512.82,250.968 C515.841,250.101 519.106,246.928 519.106,246.928 L533.997,236.108 C533.993,236.108 542.445,231.235 540.228,225.102 z" fill="#FA9351"/>
                    <path d="M518.823,246.573 C518.823,246.573 518.357,248.148 517.629,249.395 C516.733,250.923 516.153,251.601 515.486,252.184 C514.643,252.922 513.396,252.381 514.132,251.422 C514.767,250.595 515.206,249.478 515.127,248.861 C515.046,248.244 518.823,246.573 518.823,246.573 z" fill="#FA9351"/>
                    <path d="M560.831,255.25 C557.605,247.062 555.331,239.25 555.331,239.25 L553.956,223.75 L547.838,221.981 L547.181,218.303 L535.681,218.358 L536.338,224.036 L530.526,226.753 L532.331,240.75 C532.331,240.75 533.365,252.232 535.581,260.75 C538.831,273.25 545.2,291.737 545.2,291.737 C545.2,291.737 541.872,290.988 540.026,294.359 C538.795,296.607 540.241,299.848 542.879,299.745 L553.172,298.682 C553.044,295.387 551.832,287.25 549.954,272.545 C549.334,267.684 548.486,261.478 548.704,260.048 C549.406,261.312 564.081,263.5 560.831,255.25 z" fill="#FA9351"/>
                    <path d="M546.954,222.772 C546.954,222.772 552.566,220.425 557.644,225.883 C561.021,229.513 571.004,241.014 571.004,241.014 C571.004,241.014 575.487,241.656 577.259,245.463 C578.697,248.558 575.613,251.173 572.98,250.079 C570.079,248.871 567.197,245.347 567.197,245.347 L552.385,233.925 C552.387,233.925 544.053,228.612 546.954,222.772 z" fill="#FA9351"/>
                    <path d="M567.52,245.027 C567.52,245.027 567.802,246.645 568.386,247.967 C569.101,249.588 569.598,250.326 570.194,250.982 C570.947,251.811 572.249,251.417 571.628,250.379 C571.092,249.485 570.779,248.324 570.932,247.722 C571.079,247.12 567.52,245.027 567.52,245.027 z" fill="#FA9351"/>
                    <path d="M549.896,264.77 C550.667,265.994 551.546,267.732 555.281,273.353 C555.281,273.353 559.342,278.897 563.001,276.999 C567.962,274.427 564.107,265.086 564.107,265.086 C561.646,256.636 556.367,240.141 556.367,240.141 L549.896,264.77 z" fill="#FA9351"/>
                    <g>
                      <path d="M553.862,189.98 C548.745,185.106 534.299,184.438 529.18,189.313 C525.763,192.567 525.903,203.223 525.903,203.223 C525.903,203.223 525.904,210.278 525.903,210.279 C525.903,212.434 524.559,213.841 527.058,217.289 C531.925,224.005 549.914,224.12 554.782,217.403 C557.28,213.955 557.01,209.479 557.01,207.325 C557.008,205.17 560.226,196.041 553.862,189.98 z" fill="#FA9351"/>
                      <path d="M549.419,194.117 C549.419,194.117 547.315,194.761 546.508,197.64 C545.281,202.006 537.814,202.926 532.07,203.385 C526.394,203.84 525.98,206.219 525.98,206.219 C525.98,206.219 520.695,202.236 523.682,194.575 C526.234,188.031 532.872,185 542.065,184.311 C550.544,183.675 552.176,188.294 552.176,188.294 C552.176,188.294 557.784,189.033 559.07,195.57 C560.336,202.005 558.382,206.141 558.382,206.141 L553.901,206.485 C553.901,206.485 550.535,204.057 549.421,201.008 C548.271,197.87 548.729,195.572 549.419,194.117 z" fill="#494011"/>
                      <path d="M553.613,207.407 C553.613,207.407 555.425,204.879 557.739,205.913 C560.055,206.947 559.186,209.934 557.885,211.543 C556.58,213.151 553.614,214.933 553.614,214.933 L553.614,207.407 L553.613,207.407 z" fill="#FA9351"/>
                      <path d="M532.872,206.602 C532.872,207.787 532.187,208.747 531.342,208.747 C530.497,208.747 529.812,207.787 529.812,206.602 C529.812,205.417 530.497,204.457 531.342,204.457 C532.187,204.457 532.872,205.417 532.872,206.602 z" fill="#494011"/>
                      <path d="M546.432,206.602 C546.432,207.787 545.746,208.747 544.9,208.747 C544.054,208.747 543.368,207.787 543.368,206.602 C543.368,205.417 544.054,204.457 544.9,204.457 C545.746,204.457 546.432,205.417 546.432,206.602 z" fill="#494011"/>
                      <path d="M542.812,216.378 C542.812,217.822 540.471,218.992 537.584,218.992 C534.697,218.992 532.356,217.822 532.356,216.378 C532.356,214.934 534.697,213.764 537.584,213.764 C540.471,213.764 542.812,214.934 542.812,216.378 z" fill="#993333"/>
                      <path d="M538.906,210.404 C538.906,211.197 538.263,211.84 537.469,211.84 C536.676,211.84 536.031,211.197 536.031,210.404 C536.031,210.404 536.617,210.921 537.41,210.921 C538.203,210.921 538.906,210.404 538.906,210.404 z" fill="#E27437"/>
                      <path d="M545.857,201.461 C545.857,201.461 546.345,201.633 546.863,202.065 C547.643,202.715 547.667,203.328 547.782,203.415 C547.782,203.415 547.992,202.448 547.121,201.777 C546.375,201.203 545.857,201.461 545.857,201.461 z" fill="#494011"/>
                      <g>
                        <path d="M537.585,215.87 C539.674,215.935 540.461,216.486 541.85,217.874 C540.569,218.746 539.084,218.916 537.584,218.992 C535.759,219.015 534.887,218.658 533.319,217.875 C534.35,216.46 535.937,216.036 537.585,215.87 z" fill="#DB2335"/>
                        <path d="M534.456,256.5 L537.831,275.875 C537.831,275.875 540.081,277.5 544.581,277 C549.081,276.5 550.956,274.5 550.956,274.5 L550.081,265.75 L554,273 C554,273 557.875,272.875 560.5,271 C563.125,269.125 564.956,266.625 564.956,266.625 L558.956,249.5 L534.456,256.5 z" fill="#F6BF35"/>
                        <path d="M535.831,223.75 L541.456,234.375 L547.956,221.625 C547.956,221.625 552.206,221.875 554.581,223.25 C556.956,224.625 560.831,229.25 560.831,229.25 L558.25,238.5 L555.5,236 L560.5,251.5 C560.5,251.5 554.081,256.375 548.581,257.25 C543.081,258.125 534.581,258 534.581,258 L531.831,238.75 L529.706,239.875 L525.456,231.25 C525.456,231.25 528.598,227.719 530.456,226.375 C532.706,224.75 535.831,223.75 535.831,223.75 z" fill="#FFFFFF"/>
                        <g>
                          <path d="M521.105,251.27 C521.658,251.823 521.658,252.721 521.105,253.275 L512.996,261.385 C512.443,261.938 511.547,261.938 510.992,261.385 L497.44,247.833 C496.887,247.279 496.887,246.382 497.44,245.829 L505.55,237.72 C506.104,237.166 507.002,237.166 507.555,237.72 L521.105,251.27 z" fill="#494011"/>
                          <g>
                            <path d="M516.961,249.462 C517.375,249.877 517.375,250.55 516.961,250.966 L510.687,257.24 C510.272,257.655 509.599,257.655 509.184,257.24 L499.551,247.607 C499.136,247.192 499.136,246.519 499.551,246.104 L505.823,239.83 C506.239,239.414 506.912,239.414 507.326,239.83 L516.961,249.462 z" fill="#A8A9AA"/>
                            <path d="M516.131,255.473 C516.131,255.991 515.711,256.41 515.194,256.41 C514.676,256.41 514.257,255.991 514.257,255.473 C514.257,254.956 514.676,254.536 515.194,254.536 C515.711,254.536 516.131,254.956 516.131,255.473 z" fill="#A8A9AA"/>
                          </g>
                        </g>
                        <path d="M384.365,308.269 C384.365,308.269 388.13,305.078 395.429,311.134 C399.242,314.3 408.774,325.358 408.774,325.358 C408.774,325.358 413.303,325.483 415.496,329.06 C417.281,331.971 414.516,334.921 411.773,334.135 C408.753,333.268 405.487,330.095 405.487,330.095 L390.597,319.277 C390.6,319.275 382.15,314.402 384.365,308.269 z" fill="#FA9351"/>
                        <path d="M405.771,329.74 C405.771,329.74 406.237,331.315 406.967,332.56 C407.863,334.088 408.441,334.766 409.108,335.349 C409.951,336.086 411.198,335.545 410.462,334.587 C409.825,333.76 409.386,332.643 409.467,332.026 C409.548,331.409 405.771,329.74 405.771,329.74 z" fill="#FA9351"/>
                        <path d="M377.478,307.074 C377.478,307.074 371.929,304.583 366.711,309.909 C363.24,313.451 352.966,324.691 352.966,324.691 C352.966,324.691 348.466,325.215 346.599,328.975 C345.078,332.034 348.098,334.725 350.758,333.702 C353.689,332.569 356.658,329.12 356.658,329.12 L371.761,318.082 C371.762,318.083 380.23,312.987 377.478,307.074 z" fill="#FA9351"/>
                        <path d="M356.349,328.792 C356.349,328.792 356.025,330.402 355.408,331.709 C354.651,333.311 354.137,334.037 353.523,334.677 C352.749,335.488 351.461,335.058 352.106,334.038 C352.665,333.158 353.006,332.006 352.871,331.399 C352.736,330.792 356.349,328.792 356.349,328.792 z" fill="#FA9351"/>
                        <path d="M388.331,306.833 C388.331,306.833 389,312.083 383.081,311.5 C377.142,310.915 376.636,304.792 376.636,304.792 C376.636,304.792 372.386,305.042 370.011,306.417 C367.636,307.792 363.761,312.417 363.761,312.417 L367.165,321.5 L369.581,320 L366.831,326.833 C366.831,326.833 371.038,331.435 376.331,333.166 C384.999,335.999 391.665,334.666 391.665,334.666 L392.747,321.333 L394.831,322.833 L399.135,314.416 C399.135,314.416 395.993,310.885 394.135,309.541 C391.887,307.917 388.331,306.833 388.331,306.833 z" fill="#FFFFFF"/>
                        <g>
                          <path d="M409.938,339.404 C409.938,340.185 410.573,340.822 411.356,340.822 L439.639,340.822 C440.421,340.822 441.056,340.185 441.056,339.404 L441.056,320.24 C441.056,319.457 440.421,318.823 439.639,318.823 L411.356,318.823 C410.572,318.823 409.938,319.457 409.938,320.24 L409.938,339.404 z" fill="#494011"/>
                          <g>
                            <path d="M411.59,335.196 C411.59,335.783 412.066,336.258 412.652,336.258 L438.34,336.258 C438.927,336.258 439.402,335.781 439.402,335.196 L439.402,321.572 C439.402,320.985 438.926,320.509 438.34,320.51 L412.652,320.51 C412.064,320.51 411.59,320.988 411.59,321.573 L411.59,335.196 z" fill="#A8A9AA"/>
                            <path d="M426.433,338.197 C426.433,338.714 426.013,339.134 425.496,339.134 C424.978,339.134 424.559,338.714 424.559,338.197 C424.559,337.68 424.978,337.26 425.496,337.26 C426.013,337.26 426.433,337.68 426.433,338.197 z" fill="#A8A9AA"/>
                          </g>
                        </g>
                        <path d="M492.482,235.159" fill-opacity="0" stroke="#FFFFFF" stroke-width="1" stroke-miterlimit="10"/>
                        <path d="M427.222,312.588" fill-opacity="0" stroke="#FFFFFF" stroke-width="1" stroke-miterlimit="10"/>
                        <path d="M730.213,367.195 C730.213,367.195 726.448,364.002 719.149,370.058 C715.335,373.224 705.804,384.281 705.804,384.281 C705.804,384.281 701.275,384.406 699.082,387.986 C697.297,390.896 700.062,393.845 702.805,393.058 C705.825,392.193 709.09,389.021 709.09,389.021 L723.981,378.201 C723.98,378.201 732.43,373.328 730.213,367.195 z" fill="#FA9351"/>
                        <path d="M736.603,365.25 C736.603,365.25 742.153,362.76 747.37,368.086 C750.841,371.627 761.114,382.867 761.114,382.867 C761.114,382.867 765.614,383.392 767.481,387.154 C769.002,390.211 765.983,392.904 763.323,391.879 C760.391,390.746 757.423,387.297 757.423,387.297 L742.319,376.26 C742.318,376.26 733.85,371.162 736.603,365.25 z" fill="#FA9351"/>
                        <path d="M757.731,386.969 C757.731,386.969 758.054,388.578 758.671,389.885 C759.429,391.489 759.942,392.213 760.556,392.854 C761.329,393.665 762.618,393.237 761.973,392.215 C761.411,391.334 761.074,390.182 761.207,389.576 C761.345,388.969 757.731,386.969 757.731,386.969 z" fill="#FA9351"/>
                        <path d="M726.244,365.76 C726.244,365.76 725.578,371.01 731.494,370.426 C737.435,369.84 737.941,363.717 737.941,363.717 C737.941,363.717 742.191,363.967 744.566,365.342 C746.941,366.717 750.816,371.342 750.816,371.342 L747.411,380.426 L745.447,379.176 L749.947,390.801 C749.947,390.801 746.135,394.424 736.572,395.676 C726.072,397.051 722.912,393.592 722.912,393.592 L721.828,380.26 L719.744,381.76 L715.441,373.342 C715.441,373.342 718.583,369.811 720.441,368.467 C722.693,366.842 726.244,365.76 726.244,365.76 z" fill="#FFFFFF"/>
                        <g>
                          <path d="M740.041,330.329 C734.555,325.873 720.068,327.022 715.353,332.285 C711.344,336.756 713.499,345.888 713.499,345.888 L714.161,352.831 C714.161,352.831 712.682,357.099 715.444,360.34 C720.828,366.652 738.797,365.885 743.115,358.806 C745.335,355.169 744.685,350.191 744.513,348.042 C744.346,345.895 746.862,335.867 740.041,330.329 z" fill="#FA9351"/>
                          <path d="M741.139,348.392 C741.139,348.392 742.743,345.732 745.134,346.58 C747.525,347.429 746.894,350.475 745.723,352.182 C744.551,353.886 741.733,355.9 741.733,355.9 L741.139,348.392 z" fill="#FA9351"/>
                          <path d="M717.676,349.907 C717.583,348.725 718.191,347.713 719.034,347.646 C719.878,347.58 720.637,348.484 720.731,349.666 C720.824,350.848 720.216,351.861 719.372,351.927 C718.529,351.994 717.769,351.089 717.676,349.907 z" fill="#494011"/>
                          <path d="M731.207,348.806 C731.114,347.625 731.721,346.613 732.565,346.546 C733.408,346.479 734.168,347.382 734.262,348.564 C734.356,349.745 733.748,350.757 732.904,350.824 C732.061,350.891 731.301,349.988 731.207,348.806 z" fill="#494011"/>
                          <path d="M726.943,353.226 C727.005,354.016 726.417,354.709 725.626,354.773 C724.835,354.835 724.145,354.245 724.081,353.455 C724.081,353.455 724.705,353.925 725.494,353.863 C726.284,353.797 726.943,353.226 726.943,353.226 z" fill="#E27437"/>
                          <path d="M732.877,343.661 C732.877,343.661 733.377,343.792 733.928,344.182 C734.756,344.769 734.827,345.38 734.949,345.455 C734.949,345.455 735.085,344.475 734.161,343.874 C733.37,343.362 732.877,343.661 732.877,343.661 z" fill="#494011"/>
                          <path d="M723.42,360.495 C723.305,359.013 724.409,357.717 725.895,357.597 C727.377,357.483 728.677,358.589 728.793,360.076 C728.793,360.076 727.618,359.193 726.138,359.31 C724.654,359.427 723.42,360.495 723.42,360.495 z" fill="#E27437"/>
                          <path d="M713,344.334 C713,344.334 714.694,345.373 717.334,344 C721.164,342.008 721.198,340.353 721.198,340.353 C721.198,340.353 723.171,342.642 727,342.334 C730.829,342.029 732.689,338.82 732.689,338.82 C732.689,338.82 737.13,340.66 738.662,343.721 C740.195,346.783 740.195,350.308 740.195,350.308 C740.195,350.308 742.505,346.308 744.793,347.091 C746.751,347.76 746.182,349.547 745.559,350.613 C744.489,352.451 744.343,355.585 744.343,355.585 C744.343,355.585 754.911,339.651 742.812,329.848 C737.125,325.244 727.951,327.399 727.951,327.399 C727.951,327.399 721.338,327 717.338,330.333 C714.019,333.098 711.158,337.595 713,344.334 z" fill="#732E30"/>
                        </g>
                        <path d="M706.948,385.717 L710.215,401.773 L734.532,401.773 L731.269,385.717 z" fill="#494011"/>
                        <path d="M733.403,400.232 L745.824,400.232 L745.824,401.773 L733.403,401.773 z" fill="#494011"/>
                        <path d="M721.531,393.051 C721.531,394.087 720.692,394.926 719.656,394.926 C718.62,394.926 717.781,394.087 717.781,393.051 C717.781,392.015 718.62,391.176 719.656,391.176 C720.692,391.176 721.531,392.015 721.531,393.051 z" fill="#A8A9AA"/>
                        <g>
                          <g>
                            <path d="M682.651,366.061 C682.626,365.226 682.589,364.393 682.547,363.565" fill-opacity="0" stroke="#FFFFFF" stroke-width="5" stroke-miterlimit="10"/>
                            <path d="M682.198,358.704 C681.976,356.265 681.682,353.847 681.32,351.451" fill-opacity="0" stroke="#FFFFFF" stroke-width="5" stroke-dasharray="4.871,4.871" stroke-miterlimit="10"/>
                            <path d="M680.934,349.047 C680.793,348.225 680.644,347.404 680.487,346.588" fill-opacity="0" stroke="#FFFFFF" stroke-width="5" stroke-miterlimit="10"/>
                            <path d="M688.386,358.951 L682.595,365.027 L676.521,359.233 L676.642,364.27 L682.715,370.061 L688.506,363.987 z" fill="#FFFFFF"/>
                          </g>
                          <path d="M666.023,308.013 C648.663,278.194 619.175,256.305 584.317,249.102" fill-opacity="0" stroke="#FFFFFF" stroke-width="5" stroke-dasharray="5" stroke-miterlimit="10"/>
                          <g>
                            <path d="M656.221,317.727 L689.291,333.542" fill-opacity="0" stroke="#FA9351" stroke-width="3" stroke-miterlimit="10"/>
                            <path d="M680.662,309.1 L664.849,342.17" fill-opacity="0" stroke="#FA9351" stroke-width="3" stroke-miterlimit="10"/>
                          </g>
                        </g>
                        <g>
                          <path d="M651.205,407.032 C650.497,407.473 649.788,407.913 649.077,408.344" fill-opacity="0" stroke="#FFFFFF" stroke-width="5" stroke-miterlimit="10"/>
                          <path d="M644.564,410.983 C613.758,428.342 579.364,434.672 546.265,430.967" fill-opacity="0" stroke="#FFFFFF" stroke-width="5" stroke-dasharray="5.228,5.228" stroke-miterlimit="10"/>
                          <path d="M543.669,430.658 C542.843,430.553 542.017,430.44 541.191,430.322" fill-opacity="0" stroke="#FFFFFF" stroke-width="5" stroke-miterlimit="10"/>
                          <path d="M642.122,405.675 L650.307,407.544 L648.433,415.726 L652.698,413.047 L654.571,404.867 L646.391,402.996 z" fill="#FFFFFF"/>
                        </g>
                        <g>
                          <path d="M451.574,241.809 L450.318,281.711" fill-opacity="0" stroke="#FA9351" stroke-width="3" stroke-miterlimit="10"/>
                          <path d="M470.897,262.389 L430.995,261.13" fill-opacity="0" stroke="#FA9351" stroke-width="3" stroke-miterlimit="10"/>
                        </g>
                        <g>
                          <g>
                            <path d="M468.934,249.955 C469.718,249.675 470.507,249.409 471.303,249.158" fill-opacity="0" stroke="#FFFFFF" stroke-width="5" stroke-miterlimit="10"/>
                            <path d="M474.87,248.138 C476.661,247.68 478.477,247.293 480.316,246.982" fill-opacity="0" stroke="#FFFFFF" stroke-width="5" stroke-dasharray="3.712,3.712" stroke-miterlimit="10"/>
                            <path d="M482.152,246.699 C482.975,246.583 483.803,246.482 484.634,246.397" fill-opacity="0" stroke="#FFFFFF" stroke-width="5" stroke-miterlimit="10"/>
                          </g>
                          <g>
                            <path d="M425.037,302.438 C425.176,301.613 425.325,300.793 425.491,299.979" fill-opacity="0" stroke="#FFFFFF" stroke-width="5" stroke-miterlimit="10"/>
                            <path d="M426.661,295.15 C428.262,289.474 430.572,284.128 433.485,279.202" fill-opacity="0" stroke="#FFFFFF" stroke-width="5" stroke-dasharray="4.968,4.968" stroke-miterlimit="10"/>
                            <path d="M434.786,277.092 C435.237,276.39 435.7,275.698 436.177,275.015" fill-opacity="0" stroke="#FFFFFF" stroke-width="5" stroke-miterlimit="10"/>
                            <path d="M431.883,296.35 L425.191,301.416 L420.129,294.721 L419.437,299.711 L424.5,306.403 L431.192,301.34 z" fill="#FFFFFF"/>
                          </g>
                        </g>
                        <g>
                          <path d="M498.781,417.826 C498.02,417.488 497.262,417.142 496.508,416.794" fill-opacity="0" stroke="#FFFFFF" stroke-width="5" stroke-miterlimit="10"/>
                          <path d="M491.854,414.551 C468.55,402.861 447.747,385.441 431.748,362.763" fill-opacity="0" stroke="#FFFFFF" stroke-width="5" stroke-dasharray="5.17,5.17" stroke-miterlimit="10"/>
                          <path d="M430.271,360.636 C429.802,359.949 429.337,359.257 428.877,358.561" fill-opacity="0" stroke="#FFFFFF" stroke-width="5" stroke-miterlimit="10"/>
                        </g>
                        <g>
                          <path d="M510.632,408.711 L526.213,441.893" fill-opacity="0" stroke="#FA9351" stroke-width="3" stroke-miterlimit="10"/>
                          <path d="M535.013,417.512 L501.83,433.092" fill-opacity="0" stroke="#FA9351" stroke-width="3" stroke-miterlimit="10"/>
                        </g>
                        <path d="M371.962,150.474 C360.648,156.703 343.019,162.718 343.019,162.718 C343.019,162.718 345.851,164.62 344.67,168.279 C343.884,170.718 340.531,171.894 338.797,169.91 L332.495,161.7 C334.977,159.529 341.543,156.879 353.516,148.138 C357.474,145.248 362.564,141.598 363.453,140.457 L371.962,150.474 z" fill="#FA9351"/>
                        <path d="M360.762,144.75 C363.988,136.562 366.262,128.75 366.262,128.75 L367.637,113.25 L373.757,111.481 L374.412,107.803 L385.912,107.858 L385.257,113.536 L390.5,113.333 L389.263,130.25 C389.263,130.25 387.834,141 386.013,150.25 C383.517,162.923 381.393,179.237 381.393,179.237 C381.393,179.237 384.721,178.488 386.567,181.859 C387.8,184.107 386.352,187.348 383.716,187.245 L373.423,186.182 C373.551,182.887 373.108,150.978 372.889,149.548 C372.187,150.813 357.512,153 360.762,144.75 z" fill="#FA9351"/>
                        <path d="M381.38,124.13 C381.38,124.13 378.974,119.821 386.327,113.828 C390.172,110.697 402.859,103.482 402.859,103.482 C402.859,103.482 403.856,99.062 407.794,97.602 C410.993,96.414 413.355,99.699 412.054,102.235 C410.618,105.03 406.876,107.622 406.876,107.622 L393.383,120.141 C393.384,120.142 386.97,127.491 381.38,124.13 z" fill="#FA9351"/>
                        <path d="M371.997,121.686 C371.997,121.686 374.325,116.066 368.851,111.007 C365.209,107.642 353.674,97.699 353.674,97.699 C353.674,97.699 353.017,93.217 349.201,91.46 C346.101,90.031 343.497,93.126 344.6,95.755 C345.818,98.651 349.352,101.521 349.352,101.521 L360.826,116.293 C360.826,116.294 366.169,124.61 371.997,121.686 z" fill="#FA9351"/>
                        <path d="M352.919,97.631 C352.919,97.631 353.152,96.006 353.011,94.567 C352.835,92.805 352.593,91.948 352.231,91.139 C351.773,90.117 350.414,90.087 350.683,91.266 C350.912,92.283 350.849,93.482 350.518,94.008 C350.187,94.534 352.919,97.631 352.919,97.631 z" fill="#FA9351"/>
                        <path d="M369,111.166 L372.165,111.999 C372.165,111.999 373,119.999 379.665,119.999 C386.334,119.999 385.5,113.666 385.5,113.666 L389.5,111.666 L389.831,124.499 L389.25,133.249 L383.665,173.332 C383.665,173.332 371.5,175.499 360,169.749 C347.074,163.286 344.451,157.084 343,153.499 L365.166,127.499 L367,120.499 L369,111.166" fill="#FFFFFF"/>
                        <path d="M380.6,124.399 C380.6,125.283 379.884,125.999 379,125.999 C378.116,125.999 377.4,125.283 377.4,124.399 C377.4,123.515 378.116,122.799 379,122.799 C379.884,122.799 380.6,123.515 380.6,124.399 z" fill="#47CAAA"/>
                        <path d="M379.95,130.399 C379.95,131.283 379.234,131.999 378.35,131.999 C377.466,131.999 376.75,131.283 376.75,130.399 C376.75,129.515 377.466,128.799 378.35,128.799 C379.234,128.799 379.95,129.515 379.95,130.399 z" fill="#47CAAA"/>
                        <g>
                          <path d="M412.89,105.545 C412.275,106.029 411.383,105.922 410.899,105.307 L403.808,96.293 C403.325,95.678 403.431,94.786 404.046,94.303 L419.108,82.454 C419.724,81.971 420.615,82.077 421.098,82.691 L428.188,91.706 C428.673,92.321 428.566,93.213 427.951,93.697 L412.89,105.545 z" fill="#494011"/>
                          <g>
                            <path d="M415.176,101.645 C414.715,102.007 414.047,101.928 413.683,101.466 L408.198,94.492 C407.837,94.031 407.915,93.363 408.378,93 L419.086,84.577 C419.547,84.214 420.216,84.294 420.577,84.755 L426.063,91.729 C426.426,92.191 426.347,92.859 425.885,93.222 L415.176,101.645 z" fill="#A8A9AA"/>
                            <path d="M410.355,99.177 C410.355,99.695 409.935,100.114 409.418,100.114 C408.9,100.114 408.481,99.695 408.481,99.177 C408.481,98.66 408.9,98.24 409.418,98.24 C409.935,98.24 410.355,98.66 410.355,99.177 z" fill="#A8A9AA"/>
                          </g>
                        </g>
                        <path d="M403.336,103.269 C403.336,103.269 403.209,101.632 403.445,100.206 C403.737,98.459 404.035,97.62 404.45,96.837 C404.974,95.847 406.334,95.908 405.986,97.066 C405.688,98.065 405.674,99.267 405.969,99.813 C406.269,100.36 403.336,103.269 403.336,103.269 z" fill="#FA9351"/>
                        <g>
                          <g>
                            <path d="M513.544,180.5 C513.503,179.665 513.448,178.833 513.385,178.004" fill-opacity="0" stroke="#FFFFFF" stroke-width="5" stroke-miterlimit="10"/>
                            <path d="M512.881,173.347 C511.243,161.429 507.025,150.335 500.803,140.649" fill-opacity="0" stroke="#FFFFFF" stroke-width="5" stroke-dasharray="4.683,4.683" stroke-miterlimit="10"/>
                            <path d="M499.508,138.696 C499.036,138.008 498.557,137.327 498.066,136.655" fill-opacity="0" stroke="#FFFFFF" stroke-width="5" stroke-miterlimit="10"/>
                            <path d="M519.128,173.298 L513.438,179.469 L507.271,173.775 L507.473,178.81 L513.641,184.5 L519.329,178.332 z" fill="#FFFFFF"/>
                          </g>
                          <g>
                            <path d="M473.546,114.43 C472.827,114.008 472.105,113.597 471.372,113.196" fill-opacity="0" stroke="#FFFFFF" stroke-width="5" stroke-miterlimit="10"/>
                            <path d="M466.512,110.741 C457.633,106.626 447.886,104.067 437.618,103.415" fill-opacity="0" stroke="#FFFFFF" stroke-width="5" stroke-dasharray="5.45,5.45" stroke-miterlimit="10"/>
                            <path d="M434.89,103.287 C434.06,103.262 433.226,103.249 432.39,103.249" fill-opacity="0" stroke="#FFFFFF" stroke-width="5" stroke-miterlimit="10"/>
                          </g>
                          <g>
                            <path d="M480.956,106.527 L491.323,141.688" fill-opacity="0" stroke="#FA9351" stroke-width="3" stroke-miterlimit="10"/>
                            <path d="M503.722,118.924 L468.561,129.291" fill-opacity="0" stroke="#FA9351" stroke-width="3" stroke-miterlimit="10"/>
                          </g>
                        </g>
                      </g>
                    </g>
                  </g>
                  <g id="Layer_3">
                    <path d="M1450.803,154.509 L1450.803,476.994 L0.374,476.994 L0.374,154.509 L1450.803,154.509 z" fill="#4CA4A4" display="none"/>
                    <path d="M2606.955,-596.104 C2606.235,-597.678 2603.281,-602.054 2592.666,-602.054 C2582.049,-602.054 2579.095,-597.678 2578.375,-596.104 C2578.375,-596.104 2576.632,-592.585 2570.139,-592.585 C2563.645,-592.585 2562.053,-596.104 2562.053,-596.104 C2561.334,-597.678 2558.381,-602.054 2547.763,-602.054 C2537.145,-602.054 2534.192,-597.678 2533.473,-596.104 C2533.473,-596.104 2531.731,-592.585 2525.237,-592.585 C2518.745,-592.585 2517.15,-596.104 2517.15,-596.104 C2516.431,-597.678 2513.478,-602.054 2502.86,-602.054 C2492.242,-602.054 2489.289,-597.678 2488.57,-596.104 C2488.57,-596.104 2486.831,-592.585 2480.339,-592.585 C2473.847,-592.585 2472.246,-596.104 2472.246,-596.104 C2471.527,-597.678 2468.574,-602.054 2457.956,-602.054 C2447.339,-602.054 2444.386,-597.678 2443.666,-596.104 C2443.666,-596.104 2441.931,-592.585 2435.437,-592.585 C2428.943,-592.585 2427.342,-596.104 2427.342,-596.104 C2426.62,-597.678 2423.667,-602.054 2413.051,-602.054 C2402.434,-602.054 2399.481,-597.678 2398.762,-596.104 C2398.762,-596.104 2397.03,-592.585 2390.533,-592.585 C2384.04,-592.585 2382.436,-596.104 2382.436,-596.104 C2381.714,-597.678 2378.761,-602.054 2368.146,-602.054 C2357.528,-602.054 2354.575,-597.678 2353.856,-596.104 C2353.856,-596.104 2352.127,-592.585 2345.632,-592.585 C2339.139,-592.585 2337.53,-596.104 2337.53,-596.104 C2336.811,-597.678 2333.858,-602.054 2323.24,-602.054 C2312.622,-602.054 2309.669,-597.678 2308.95,-596.104 C2308.95,-596.104 2307.223,-592.585 2300.73,-592.585 C2294.236,-592.585 2292.626,-596.104 2292.626,-596.104 C2291.907,-597.678 2288.954,-602.054 2278.336,-602.054 C2267.718,-602.054 2264.765,-597.678 2264.046,-596.104 C2264.046,-596.104 2262.323,-592.585 2255.828,-592.585 C2249.336,-592.585 2247.724,-596.104 2247.724,-596.104 C2247.004,-597.678 2244.051,-602.054 2233.433,-602.054 C2222.817,-602.054 2219.864,-597.678 2219.144,-596.104 C2219.144,-596.104 2217.423,-592.585 2210.929,-592.585 C2204.435,-592.585 2202.822,-596.104 2202.822,-596.104 C2202.101,-597.678 2199.148,-602.054 2188.532,-602.054 C2177.914,-602.054 2174.961,-597.678 2174.242,-596.104 C2174.242,-596.104 2172.523,-592.585 2166.031,-592.585 C2159.538,-592.585 2157.918,-596.104 2157.918,-596.104 C2157.198,-597.678 2154.245,-602.054 2143.628,-602.054 C2133.01,-602.054 2130.057,-597.678 2129.338,-596.104 C2129.338,-596.104 2127.624,-592.585 2121.131,-592.585 C2114.637,-592.585 2113.015,-596.104 2113.015,-596.104 C2112.295,-597.678 2109.342,-602.054 2098.725,-602.054 C2088.108,-602.054 2085.155,-597.678 2084.435,-596.104 C2084.435,-596.104 2082.724,-592.585 2076.231,-592.585 C2069.738,-592.585 2068.114,-596.104 2068.114,-596.104 C2067.392,-597.678 2064.439,-602.054 2053.823,-602.054 C2043.206,-602.054 2040.253,-597.678 2039.534,-596.104 C2039.534,-596.104 2037.825,-592.585 2031.333,-592.585 C2024.839,-592.585 2023.211,-596.104 2023.211,-596.104 C2022.491,-597.678 2019.538,-602.054 2008.92,-602.054 C1998.303,-602.054 1995.35,-597.678 1994.63,-596.104 C1994.63,-596.104 1992.926,-592.585 1986.432,-592.585 C1979.94,-592.585 1978.308,-596.104 1978.308,-596.104 C1977.589,-597.678 1974.636,-602.054 1964.018,-602.054 C1953.4,-602.054 1950.447,-597.678 1949.728,-596.104 C1949.728,-596.104 1948.026,-592.585 1941.532,-592.585 C1935.042,-592.585 1933.404,-596.104 1933.404,-596.104 C1932.685,-597.678 1929.731,-602.054 1919.114,-602.054 C1908.497,-602.054 1905.546,-597.678 1904.824,-596.104 C1904.824,-596.104 1903.127,-592.585 1896.634,-592.585 C1890.142,-592.585 1888.502,-596.104 1888.502,-596.104 C1887.782,-597.678 1884.829,-602.054 1874.213,-602.054 C1863.595,-602.054 1860.643,-597.678 1859.922,-596.104 C1859.922,-596.104 1858.228,-592.585 1851.734,-592.585 C1845.24,-592.585 1843.6,-596.104 1843.6,-596.104 C1842.879,-597.678 1839.926,-602.054 1829.309,-602.054 C1818.692,-602.054 1815.739,-597.678 1815.019,-596.104 C1815.019,-596.104 1813.327,-592.585 1806.831,-592.585 C1800.339,-592.585 1798.694,-596.104 1798.694,-596.104 C1797.975,-597.678 1795.021,-602.054 1784.404,-602.054 C1773.786,-602.054 1770.833,-597.678 1770.114,-596.104 C1770.114,-596.104 1768.425,-592.585 1761.931,-592.585 C1755.437,-592.585 1753.788,-596.104 1753.788,-596.104 C1753.068,-597.678 1750.115,-602.054 1739.498,-602.054 C1728.881,-602.054 1725.929,-597.678 1725.208,-596.104 L1725,-596.104 L1725,-202.416 L2606.955,-202.416 L2606.955,-596.104 z" fill="#4CA4A4" display="none"/>
                  </g>
                  <g id="Layer_5">
                    <g>
                      <path d="M1392.019,139.601 L1432.965,239 L1392.019,339.09" fill-opacity="0" stroke="#FFFFFF" stroke-width="2" stroke-miterlimit="10" display="none"/>
                      <path d="M59.532,139.601 L18.586,239 L59.532,339.09" fill-opacity="0" stroke="#FFFFFF" stroke-width="2" stroke-miterlimit="10" display="none"/>
                    </g>
                    <path d="M0.753,0.607 L0.753,477.584 L-0,477.584 L-0,0.607 L0.753,0.607 z" fill="#F5F5F5" display="none"/>
                    <path d="M1452.699,-361.243 L1974.752,-361.243 L1974.752,892.882 L1452.699,892.882 z" fill="#F5F5F5" display="none"/>
                    <path d="M-18.337,-639.707 L1647.787,-639.707 L1647.787,-117.655 L-18.337,-117.655 z" fill="#F5F5F5" display="none"/>
                    <path d="M-135.336,804.794 L1530.789,804.794 L1530.789,1326.846 L-135.336,1326.846 z" fill="#F5F5F5" display="none"/>
                  </g>
                </g>
              </g>
            </g>
          </g>
        </g>
      </g>
    </g>
  </g>
</svg>
